<svg width="48" height="48" viewBox="0 0 48 48" fill="none" xmlns="http://www.w3.org/2000/svg">
<path d="M6 11.9995H10H42" stroke="#E73F5D" stroke-width="4" stroke-linecap="round" stroke-linejoin="round"/>
<path d="M15.9995 11.9998V7.99976C15.9995 6.93889 16.4209 5.92147 17.1711 5.17133C17.9212 4.42118 18.9386 3.99976 19.9995 3.99976H27.9995C29.0604 3.99976 30.0778 4.42118 30.8279 5.17133C31.5781 5.92147 31.9995 6.93889 31.9995 7.99976V11.9998M37.9995 11.9998V39.9998C37.9995 41.0606 37.5781 42.078 36.8279 42.8282C36.0778 43.5783 35.0604 43.9998 33.9995 43.9998H13.9995C12.9386 43.9998 11.9212 43.5783 11.1711 42.8282C10.4209 42.078 9.99951 41.0606 9.99951 39.9998V11.9998H37.9995Z" stroke="#E73F5D" stroke-width="4" stroke-linecap="round" stroke-linejoin="round"/>
</svg>
